<svg t="1627982098148" class="icon" viewBox="0 0 1024 1024" version="1.1" xmlns="http://www.w3.org/2000/svg" p-id="10409" width="200" height="200"><path d="M864.411696 448.823392H734.166082V222.565302c0-59.483821-23.154776-115.374659-65.17271-157.392592C626.975439 23.154776 571.0846 0 511.60078 0 452.116959 0 396.226121 23.154776 354.208187 65.17271c-42.017934 42.017934-65.17271 97.908772-65.172709 157.392592v226.25809H157.991423c-52.098246 0-94.415595 42.317349-94.415595 94.415594v384.349318c0 52.098246 42.317349 94.415595 94.415595 94.415595h706.420273c51.998441 0 94.415595-42.317349 94.415594-94.415595V543.238986c0-52.098246-42.317349-94.415595-94.415594-94.415594zM352.910721 222.565302c0-87.529045 71.161014-158.690058 158.690059-158.690058s158.690058 71.161014 158.690058 158.690058v225.659259h-317.380117V222.565302z m511.500975 735.563353H157.991423c-16.867057 0-30.540351-13.673294-30.540351-30.540351V543.238986c0-16.867057 13.673294-30.540351 30.540351-30.540351h706.420273c16.867057 0 30.540351 13.673294 30.540351 30.540351v384.349318c0 16.867057-13.673294 30.540351-30.540351 30.540351z" p-id="10410" fill="#8a8a8a"></path><path d="M511.001949 658.414035c-24.252632 0-43.91423 19.661598-43.91423 43.91423 0 12.076413 4.890448 23.054971 12.775049 30.939571v41.918129c0 17.665497 14.272125 31.937622 31.937622 31.937622s31.937622-14.272125 31.937622-31.937622V731.57115c6.986355-7.784795 11.178168-18.064717 11.178167-29.242885 0-24.252632-19.661598-43.91423-43.91423-43.91423z" p-id="10411" fill="#8a8a8a"></path></svg>